<?xml version="1.0" encoding="UTF-8"?>
<svg id="_Слой_1" xmlns="http://www.w3.org/2000/svg" version="1.1" viewBox="0 0 657.5 321.1">
  <!-- Generator: Adobe Illustrator 29.2.1, SVG Export Plug-In . SVG Version: 2.1.0 Build 116)  -->
  <defs>
    <style>
      .st0 {
        fill: #80b019;
      }

      .st1 {
        fill: #5c4f48;
      }
    </style>
  </defs>
  <g>
    <path class="st1" d="M69.1,284.3c-1.2-1.6-1.8-4.2-1.8-7.9v-23.2c0-6.7-2.4-10-7.2-10s-5,1.1-7.1,3.2c-2.1,2.1-3.8,5.1-5,8.9-1.2,3.8-1.9,8.3-1.9,13.3v1.2c0,3.3.3,5.9.8,7.9.5,2,1.7,4,3.4,6.1l-1.2,1.5h-11.7v-32.1c0-3.3-.6-5.8-1.9-7.5-1.3-1.7-3.1-2.5-5.5-2.5s-5.2,1.1-7.4,3.3c-2.1,2.2-3.7,5.3-4.9,9.4-1.2,4-1.7,8.6-1.7,13.9s.2,5.4.7,7.3c.5,1.9,1.3,3.6,2.4,5.3l1.2,1.5-1.2,1.5H2l-1-3,1.8-.5c1.7-.3,2.8-1,3.4-2,.5-1,.8-2.8.8-5.3v-27.3c0-.8-.2-1.3-.4-1.7-.3-.3-.8-.5-1.5-.5H1l-1-2.6c1.9-1.7,4-3.1,6.4-4.2,2.4-1.1,4.6-1.6,6.4-1.6s1.7.3,2.3.9c.6.6.9,1.3.9,2.2v10.6c1.7-4.3,4.1-7.8,7.3-10.5,3.3-2.7,6.7-4,10.3-4s7,1.2,9,3.5c2,2.3,3.2,6,3.4,11,1.6-4.2,4.1-7.7,7.4-10.4,3.3-2.7,6.7-4.1,10.2-4.1s7.5,1.4,9.5,4.2,2.9,7.2,2.9,13.2v23.5c0,2.2.9,3.3,2.8,3.3s3.3-.7,4.8-2l1.9,2.5c-1.7,1.9-3.6,3.5-5.5,4.6-1.9,1.1-3.7,1.7-5.4,1.7-2.7,0-4.6-.8-5.8-2.4h0Z"/>
    <path class="st1" d="M100.8,283.9c-2.7-1.8-4.8-4.5-6.4-8-1.6-3.5-2.4-7.9-2.4-12.9,0-8.4,2.3-15,6.8-19.9,4.5-4.9,10.7-7.3,18.4-7.3s6.1.4,10.5,1.2c3.3.6,6.3,1,8.9,1.2l1.3,1.2-1.4,1.8c-.5.9-.8,1.5-1,2-.2.5-.3,1.1-.3,1.9v31.7c0,2,1,3,3.1,3s3.2-.6,4.8-1.7l1.8,2.5c-1.7,1.9-3.6,3.5-5.5,4.6-1.9,1.1-3.7,1.7-5.3,1.7-2.7,0-4.7-.8-5.9-2.4-1.2-1.6-1.8-4.2-1.8-7.9-2.6,3.8-5.2,6.5-8,8-2.8,1.5-5.7,2.3-9,2.3s-6.1-.9-8.8-2.7h0ZM126.5,270.2v-26.3c-2.8-1.9-5.9-2.8-9.4-2.8s-8.3,1.7-10.9,5.2c-2.6,3.5-3.9,8.4-3.9,14.8s1.1,10.7,3.2,13.6c2.1,2.9,4.7,4.4,7.9,4.4,5.4,0,9.8-2.9,13.2-8.8h0Z"/>
    <path class="st1" d="M188.1,213.4c2.5,1.3,4.4,3,5.6,5.2,1.3,2.1,1.9,4.4,1.9,6.8s-1.1,6.1-3.3,8.4c-2.2,2.3-5.3,3.4-9.1,3.4s-1,0-1.3-.3c-.3-.2-.4-.4-.4-.7s.4-.9,1.3-1.9c.9-1,1.7-2.1,2.4-3.5.7-1.4,1-3.1,1-5.1s-.8-4.8-2.3-6.5-3.6-2.6-6.2-2.6c-4,0-6.9,1.7-8.8,5s-2.8,7.8-2.8,13.4v15.4c2.6-3.6,5.4-6.3,8.2-7.9s5.8-2.4,8.9-2.4,6.1.8,8.8,2.4c2.7,1.6,4.8,3.9,6.4,7.1,1.6,3.1,2.4,7,2.4,11.4,0,8.4-2.3,15-6.8,19.9-4.5,4.9-10.7,7.3-18.5,7.3s-5.9-.4-10.3-1.2c-.7,0-2-.3-3.9-.5-1.9-.3-3.6-.5-5.2-.6l-1-1.2,1.1-1.8c.5-.7.9-1.3,1.1-1.8s.3-1.2.3-2v-42.4c0-7.9,1.9-14.1,5.7-18.5,3.8-4.4,9.1-6.6,15.7-6.6s6.7.7,9.2,2h0ZM171.9,249.6c-2.2,1.4-4.2,3.7-5.9,6.8v23.5c2.8,1.9,5.9,2.8,9.3,2.8s8.4-1.7,11.1-5.2c2.7-3.5,4-8.4,4-14.8s-1.1-9.1-3.2-11.5-4.9-3.7-8.2-3.7-5,.7-7.2,2.1h0Z"/>
    <path class="st1" d="M254.7,247.1c-1.8-3.5-4.2-6.3-7.4-8.3-3.1-2-6.7-3-10.6-3s-3.7.3-5.5.8c.6,1.8,1,3.7.8,5.6.5,0,.9-.1,1.5-.1,4.1,0,7.4,1.8,9.8,5.3,2.5,3.5,3.7,8.1,3.7,13.7s-1.2,10.8-3.7,14.6c-2.5,3.8-5.7,5.7-9.7,5.7s-3.5-.3-4.7-.8c-1.2-.5-1.9-.8-2.1-.8-.5,0-.9.2-1.1.7-.2.3-.3.8-.3,1.2,0,.4,0,.8,0,1.2.1.5.4.9.8,1.1,2.6,1.8,5.8,2.7,9.7,2.7s7.6-1.2,10.9-3.5c3.3-2.4,5.8-5.6,7.7-9.8,1.9-4.2,2.8-8.9,2.8-14s-.9-8.6-2.6-12.2h0Z"/>
    <path class="st1" d="M275,282.4c-2.6-2.8-3.9-6.8-3.9-11.9v-24.3c0-1.6-.6-2.4-1.9-2.4h-4.4l-.8-2.4c1.6-1.7,3.7-3.1,6.1-4.2,2.4-1.1,4.6-1.6,6.6-1.6s1.7.3,2.3.8.9,1.2.9,2.1v29.5c0,3.9.8,6.8,2.4,8.9,1.6,2,3.9,3.1,7,3.1,4.4,0,7.8-1.9,10.2-5.6,2.4-3.8,3.6-9,3.6-15.6s-.3-8.4-.8-11.1c-.5-2.7-1.6-5.3-3.1-7.9l-1.2-1.5,1.2-1.4,12-1.2v40.9c0,2,.9,3,2.6,3s3.2-.6,4.8-1.7l1.9,2.5c-1.6,1.9-3.4,3.4-5.3,4.5-2,1.1-3.8,1.7-5.5,1.7-2.6,0-4.4-.8-5.6-2.3-1.1-1.5-1.7-3.9-1.7-7.1-1.6,2.9-3.8,5.2-6.8,6.9-2.9,1.7-6.2,2.5-9.9,2.5s-8.3-1.4-10.9-4.2h0Z"/>
    <path class="st1" d="M349.8,282.2l1.9-.5c2.3-.5,3.8-1.3,4.6-2.5.8-1.2,1.1-3.1,1.1-5.9v-8.7c-1.9,1.5-4,2.7-6.3,3.5-2.3.9-5,1.3-8.1,1.3-10,0-14.9-4.8-14.9-14.4v-2.6c0-3.1,0-5.4-.2-6.7-.1-1.3-.3-2.3-.6-3.1-.3-.7-.9-1.7-1.8-2.9l-1.2-1.4,1.1-1.5,11.7-1.2v17.9c0,3.3.8,5.6,2.4,7,1.6,1.4,3.9,2,6.9,2,4.4,0,8-1.3,11.1-3.9v-10c0-2.7-.4-4.6-1.1-5.6-.8-1-2.3-1.9-4.6-2.6l-1.9-.6,1.1-2.9h19.4l1.2,1.4-1.2,1.5c-1.5,2-2.5,4.1-3.1,6.3-.6,2.2-.9,5.1-.9,8.8v19.1c0,2.5.4,4.3,1.1,5.3.7,1,2.2,1.8,4.4,2.5l1.9.4-1,3h-21.9l-1.1-3.1h0Z"/>
    <path class="st1" d="M393.4,283.6c-3.4-2.1-6-5-7.8-8.8-1.9-3.8-2.8-8.1-2.8-13s1-9.7,3.1-13.6c2.1-3.9,5-7,8.9-9.1,3.8-2.1,8.2-3.2,13.2-3.2s9.4,1.4,12.3,4.2,4.3,6.2,4.3,10.1-.7,5.3-2.2,7.8c-1.5,2.5-3.6,4.5-6.4,6.1-2.8,1.6-6.1,2.4-9.9,2.4s-4.5-.4-7-1.1c-2.5-.8-3.8-1.9-3.8-3.4s.1-1.1.4-1.5c.3-.4.6-.6,1-.6s.9.2,2,.6c1.1.4,2.5.6,4.4.6,3.9,0,7-1.1,9.1-3.2,2.1-2.1,3.2-4.7,3.2-7.7s-.9-4.8-2.5-6.7c-1.7-1.9-3.9-2.8-6.7-2.8-4.2,0-7.5,1.8-9.8,5.5-2.3,3.7-3.5,8.9-3.5,15.7s1.2,10.3,3.7,13.6c2.5,3.3,6,4.9,10.7,4.9s10.4-1.9,14.2-5.6.5-.3.9-.3c.6,0,1.2.3,1.8.9.6.6.9,1.2.9,1.8s0,.4-.2.6c-.1.2-.2.3-.2.4-2.4,2.9-5.3,5-8.6,6.5-3.3,1.5-6.9,2.2-10.7,2.2s-8.5-1-11.8-3.1h0Z"/>
    <path class="st1" d="M445.7,283.3c-3.6-2.2-6.4-5.3-8.4-9.1-2-3.9-3.1-8.2-3.1-13s1-9.6,2.9-13.5c1.9-3.8,4.7-6.8,8.3-8.9,3.6-2.1,7.7-3.1,12.5-3.1s9.1,1.2,12.3,3.6c3.2,2.4,4.8,5.5,4.8,9.3s-.9,5.1-2.7,6.8c-1.8,1.8-4.1,2.6-6.9,2.6s-1.1,0-1.4-.2c-.3-.1-.4-.4-.4-.8s.2-.7.7-1.4c.5-.7.9-1.6,1.2-2.6.4-1,.5-2.4.5-4,0-2.6-.8-4.6-2.5-6.1-1.7-1.5-3.9-2.2-6.7-2.2s-6.7,1.8-9,5.4c-2.2,3.6-3.4,8.4-3.4,14.3s1.3,10.8,4,14.3c2.7,3.5,6.3,5.3,10.9,5.3s4.6-.4,6.7-1.2c2.1-.8,4.1-2,6.2-3.8.1-.1.4-.2.9-.2s1.1.3,1.7.9c.5.6.8,1.2.8,1.9s0,.8-.2.8c-2.3,2.7-5,4.7-8,6.1-3,1.4-6.2,2.1-9.5,2.1s-8.5-1.1-12.1-3.3h0Z"/>
    <path class="st1" d="M484.1,282.3l1.9-.6c2.3-.6,3.8-1.5,4.6-2.5.8-1,1.1-2.9,1.1-5.6v-24.7c0-2.7-.4-4.6-1.1-5.7-.8-1.1-2.3-1.9-4.6-2.6l-1.9-.6,1-2.9h19.3l1.2,1.3-1.2,1.6c-1.4,2.1-2.5,4.2-3.1,6.4s-.9,5.1-.9,8.7v19.1c0,2.6.4,4.3,1.1,5.3.7.9,2.2,1.8,4.4,2.5l1.9.5-1,2.9h-21.8l-1-3h0ZM521.1,284.5c-1.8-1.4-3.5-3.6-5.3-6.7l-6.8-11.3c-.5-.9-1.1-1.5-1.8-2-.7-.5-1.5-.9-2.2-1.2-.8-.3-1.2-.5-1.5-.7-.3-.1-.4-.5-.4-1.2,0-1.3.5-1.9,1.6-1.9h1.8l8.7-10.6c1.4-1.6,2-3.4,2-5.6s-.3-2.2-.8-3.3l-.8-1.6,1.6-1.4h15.8l1.1,3-1.9.5c-1.5.4-2.7,1-3.8,1.8-1.1.8-2.2,1.8-3.3,3.2l-12.2,15.2c3.2,1.6,5.6,3.6,7.1,6l7.5,12.2c.6.9,1.1,1.6,1.6,2,.5.4,1,.6,1.7.6,1.3,0,2.5-.4,3.6-1.3l1.5,2.7c-2.4,2.4-5.1,3.6-8.3,3.6s-4.8-.7-6.6-2.1h0Z"/>
    <path class="st1" d="M550.4,282.4c-2.6-2.8-3.9-6.8-3.9-11.9v-24.3c0-1.6-.6-2.4-1.9-2.4h-4.4l-.8-2.4c1.7-1.7,3.7-3.1,6.1-4.2,2.4-1.1,4.6-1.6,6.6-1.6s1.7.3,2.3.8.9,1.2.9,2.1v29.5c0,3.9.8,6.8,2.3,8.9,1.6,2,3.9,3.1,7,3.1,4.4,0,7.8-1.9,10.2-5.6,2.4-3.8,3.7-9,3.7-15.6s-.3-8.4-.8-11.1c-.5-2.7-1.6-5.3-3.1-7.9l-1.2-1.5,1.2-1.4,12-1.2v40.9c0,2,.9,3,2.6,3s3.2-.6,4.8-1.7l1.9,2.5c-1.6,1.9-3.4,3.4-5.3,4.5-2,1.1-3.8,1.7-5.5,1.7-2.6,0-4.4-.8-5.6-2.3-1.2-1.5-1.7-3.9-1.7-7.1-1.6,2.9-3.8,5.2-6.8,6.9-2.9,1.7-6.2,2.5-9.9,2.5s-8.3-1.4-10.8-4.2h0Z"/>
    <path class="st1" d="M611.9,282.4c-2.6-2.8-3.9-6.8-3.9-11.9v-24.3c0-1.6-.6-2.4-1.9-2.4h-4.4l-.7-2.4c1.6-1.7,3.7-3.1,6.1-4.2,2.4-1.1,4.6-1.6,6.6-1.6s1.7.3,2.3.8c.6.5.9,1.2.9,2.1v29.5c0,3.9.8,6.8,2.4,8.9,1.6,2,3.9,3.1,7,3.1,4.4,0,7.8-1.9,10.2-5.6,2.4-3.8,3.6-9,3.6-15.6s-.3-8.4-.8-11.1c-.5-2.7-1.6-5.3-3.1-7.9l-1.2-1.5,1.2-1.4,12-1.2v40.9c0,2,.9,3,2.6,3s3.3-.6,4.8-1.7l1.9,2.5c-1.6,1.9-3.4,3.4-5.3,4.5-2,1.1-3.8,1.7-5.5,1.7-2.6,0-4.5-.8-5.6-2.3-1.2-1.5-1.7-3.9-1.7-7.1-1.6,2.9-3.8,5.2-6.8,6.9-2.9,1.7-6.2,2.5-9.9,2.5s-8.3-1.4-10.8-4.2h0Z"/>
    <path class="st1" d="M223.5,278.8c-.8-9.5-1.1-18.4-1.1-18.4,0-2-1.2-6.4,4.5-14.6,1.9-2.7,5.9-3,8.5-3.7,0-1.6.4-.6,1.1-2.3.5-1,1.1-1.9,1.8-2.7-2.4-.5-4.5-.9-6.9-.5-3.4.6-6.7,2.5-9.3,4.7-2.9,2.5-4.9,5.2-6.2,8.1-1.2,3-1.8,6.8-1.8,11.6l.6,39.2c0,4-.1,7.1-.5,9.1-.4,2-1.3,3.6-2.6,4.7-.9.8-1.7,1.2-2.5,1.5s-1.7.4-2.6.6c-.9.2-1.6.4-1.9.6-.4.3-.6,1-.6,2,0,1,.2,1.7.6,2.1.1.2.3.2.5.2.2,0,.3,0,.4,0,4.9,0,9.1-1.6,12.6-4.7,4.1-3.5,6.1-8.7,6-15.6l-.7-22h0Z"/>
  </g>
  <path class="st1" d="M515.4,97.4c-7.9-44.2-48.1-67.4-84.6-70.6-14.9-1.3-80-1.5-193.4-.5h-9.1c0,0-.2-6.8-.2-6.8l9.2-.4c42.3-.4,171.2-1.6,194.1.5,47,4.2,82.2,35,89.6,76.5l-5.7,1.2h0Z"/>
  <path class="st1" d="M452.6,185c-5.1,0-10.3-.6-15.5-1.9-16.6-4.2-31.3-15.4-39.2-30-7.1-13.1-8.3-27.9-3.5-41.8,5.8-16.8,20.8-29.4,38.3-32.1,15.2-2.4,29.2,3.4,38.5,15.9,10.1,13.6,9,33-2.6,45.2-6,6.3-14.9,9.7-23.9,9-8.4-.7-15.9-4.9-20.6-11.6-6.6-9.5-5.3-22.4,3-30.8,3.8-3.8,9.6-5.1,14.2-3,4.1,1.9,6.3,5.9,5.9,10.9-.4,5.5-5.1,8.1-8.5,10-.9.5-1.7,1-2.4,1.4-3.9,2.8-4.9,5.8-3.4,10,3.2,3.1,7.5,5,12.4,5.3,6.7.5,13.3-2,17.7-6.6,9.1-9.5,10-24.7,2.1-35.3-7.6-10.2-18.7-14.8-31.2-12.9-14.5,2.2-27.5,13.1-32.3,27.1-4.1,11.8-3,24.5,3,35.7,6.9,12.7,19.7,22.5,34.3,26.2,27.1,6.8,55.3-7.4,68.6-34.6,12.3-25.2,8.6-56.6-9.2-78.2-19.3-23.4-49.2-38.1-75.8-36.4l-.3-7c29-1.8,61.7,15,82.6,40.3,19.7,23.9,23.2,56.9,9.5,84.8-12.4,25.3-36.5,40.6-61.9,40.6h0ZM436.6,110.6c-1.3,0-2.8.5-4,1.7-3.2,3.3-4.9,7.5-5,11.8,1.1-1.5,2.6-2.8,4.3-4.1,1-.7,2-1.3,3-1.8,2.1-1.2,4.5-2.5,4.6-3.9.2-2.6-1-3.2-1.4-3.4-.4-.2-1-.3-1.6-.3h0Z"/>
  <path class="st0" d="M380.6,137.2c12.8,5,18.4,21.4,18.2,22,0,0-15.5,8.8-28.3,3.8-12.8-5.1-18.2-22-18.2-22,0,0,15.5-8.8,28.3-3.7Z"/>
  <path class="st0" d="M396.7,100.2c-1.9,7.8-10.9,12.4-11.3,12.2,0,0-6.3-8.2-4.4-16,1.9-7.8,11.2-12.2,11.2-12.2,0,0,6.3,8.2,4.4,16h0Z"/>
  <path class="st0" d="M528.7,120.9c-5.9-8.3-2.8-20.7-2.4-21,0,0,13.2.8,19.1,9.1,5.9,8.3,2.4,21,2.4,21,0,0-13.2-.8-19.1-9.1h0Z"/>
  <path class="st0" d="M480.2,155.4c-7.6-2.6-11.3-12-11.2-12.3,0,0,8.8-5.5,16.4-2.9,7.6,2.6,11.2,12.4,11.2,12.4,0,0-8.8,5.5-16.4,2.9h0Z"/>
  <path class="st0" d="M491,26.4c-8.1,5.1-19.5,1.4-19.8,1,0,0,1.5-12.2,9.6-17.3,8.1-5.1,19.8-1,19.8-1,0,0-1.5,12.3-9.6,17.3Z"/>
  <path class="st0" d="M459.5,11.9c-1.5-5.7,2.7-11.8,3-11.9,0,0,7,3.1,8.5,8.9,1.5,5.7-3,11.9-3,11.9,0,0-7-3.1-8.5-8.8Z"/>
  <path class="st0" d="M482.7,82.2c2.5-9.9,14.1-15.5,14.6-15.4,0,0,7.9,10.6,5.3,20.5-2.5,9.9-14.6,15.4-14.6,15.4,0,0-7.9-10.6-5.4-20.5h0Z"/>
  <path class="st0" d="M484.6,186.9c3.1-10.4,15.5-15.8,16-15.6,0,0,7.9,11.5,4.8,21.9-3.1,10.4-16,15.6-16,15.6,0,0-7.9-11.5-4.8-21.9h0Z"/>
  <path class="st0" d="M626.6,204.6c6.2-8.2,19-8.9,19.4-8.6,0,0,3.2,12.9-3,21-6.2,8.2-19.4,8.5-19.4,8.5,0,0-3.2-12.9,3-21Z"/>
  <path class="st0" d="M459.6,163.6c4.9,1.8,7.1,7.8,7,8.1,0,0-5.7,3.4-10.6,1.6-4.8-1.8-7-8.1-7-8.1,0,0,5.7-3.4,10.6-1.6h0Z"/>
  <path class="st0" d="M432.2,152.5c5-3.4,12.3-1.4,12.5-1.1,0,0-.7,7.8-5.6,11.1-5,3.4-12.5,1.1-12.5,1.1,0,0,.6-7.8,5.7-11.1h0Z"/>
  <path class="st0" d="M448.5,131.6c1.4,4.2-1.4,8.9-1.6,8.9,0,0-5.3-1.9-6.7-6.1-1.4-4.1,1.6-8.9,1.6-8.9,0,0,5.3,1.9,6.7,6.1h0Z"/>
  <path class="st1" d="M209.2,185c-25.4,0-49.5-15.3-61.9-40.6-13.6-27.9-9.5-62.6,10.2-86.5,20.9-25.2,53-40.4,81.9-38.6l-.4,7.1c-26.5-1.7-56.4,13-75.7,36.4-17.8,21.6-21.5,53.1-9.2,78.2,13.3,27.2,41.5,41.4,68.6,34.6,14.6-3.7,27.4-13.4,34.3-26.2,6-11.2,7.1-23.8,3-35.7-4.8-13.9-17.8-24.8-32.2-27.1-12.5-1.9-23.6,2.6-31.2,12.9-7.9,10.6-7,25.8,2.1,35.3,4.4,4.7,11.1,7.1,17.7,6.6,4.8-.4,9.1-2.2,12.4-5.3,1.5-4.2.5-7.2-3.4-10-.6-.4-1.5-.9-2.4-1.4-3.4-1.9-8.1-4.6-8.5-10-.4-5,1.8-9.1,5.9-10.9,4.6-2.1,10.4-.9,14.2,3,8.3,8.4,9.6,21.3,3,30.8-4.6,6.7-12.1,10.9-20.6,11.6-8.9.7-17.8-2.7-23.9-9-11.6-12.2-12.7-31.6-2.6-45.2,9.3-12.5,23.3-18.2,38.5-15.9,17.5,2.7,32.5,15.3,38.3,32.1,4.8,13.9,3.5,28.7-3.5,41.8-7.9,14.6-22.5,25.8-39.2,30-5.2,1.3-10.4,1.9-15.5,1.9h0ZM225.3,110.6c-.6,0-1.1.1-1.6.3-.4.2-1.6.8-1.4,3.4.1,1.4,2.5,2.8,4.6,3.9,1,.6,2.1,1.2,3,1.8,1.7,1.2,3.2,2.6,4.3,4.1,0-4.3-1.7-8.5-5-11.8-1.2-1.2-2.7-1.7-4-1.7h0Z"/>
  <path class="st0" d="M281.8,127.1c-11.2,8.1-12.5,25.3-12.1,25.8,0,0,17.2,4.7,28.4-3.4,11.2-8.1,12.1-25.9,12.1-25.9,0,0-17.2-4.7-28.4,3.4h0Z"/>
  <path class="st0" d="M268,109.1c1.9,7.8,10.9,12.4,11.3,12.3,0,0,6.3-8.2,4.4-16.1-1.9-7.8-11.3-12.2-11.3-12.2,0,0-6.3,8.2-4.4,16h0Z"/>
  <path class="st0" d="M125.7,154.3c11.9-6.9,15-23.9,14.6-24.5,0,0-16.6-6.4-28.6.6-11.9,6.9-14.6,24.5-14.6,24.5,0,0,16.6,6.4,28.5-.6h0Z"/>
  <path class="st0" d="M150.8,160.2c-.4-9.1-9.6-16.2-10-16.1,0,0-8.8,7.9-8.4,17,.4,9.2,10,16.1,10,16.1,0,0,8.8-7.9,8.4-17h0Z"/>
  <path class="st0" d="M157.6,31.5c9.1,6.5,22.7,3.1,23,2.6,0,0-.9-14.4-10-20.9-9.1-6.5-23.1-2.6-23.1-2.6,0,0,.9,14.4,10,20.9h0Z"/>
  <path class="st0" d="M158.1,49.1c5-1.6,7.6-7.6,7.5-7.9,0,0-5.6-3.7-10.6-2.2-5,1.6-7.5,7.9-7.5,7.9,0,0,5.6,3.7,10.6,2.2Z"/>
  <path class="st0" d="M179,83.3c-2.6-9.9-14.1-15.5-14.6-15.4,0,0-7.9,10.6-5.4,20.5,2.6,9.9,14.6,15.4,14.6,15.4,0,0,7.9-10.6,5.4-20.5h0Z"/>
  <path class="st0" d="M223,192.8c-5.2-6.1-15.2-6.2-15.6-5.9,0,0-2,10.2,3.2,16.3,5.2,6.1,15.5,5.9,15.5,5.9,0,0,2-10.2-3.2-16.3h0Z"/>
  <path class="st0" d="M187.3,142.1c2.2-8.4-4-17.3-4.4-17.4,0,0-10.2,4.6-12.4,13-2.2,8.4,4.4,17.4,4.4,17.4,0,0,10.2-4.6,12.4-13Z"/>
  <path class="st0" d="M240.1,142.1c-5.4-.1-10,5-10,5.2,0,0,4.3,5.6,9.7,5.7,5.4.1,10-5.2,10-5.2,0,0-4.3-5.6-9.7-5.7h0Z"/>
  <path class="st0" d="M210,131.9c-1.4,4.1,1.4,8.9,1.6,8.9,0,0,5.3-1.9,6.7-6.1,1.4-4.2-1.6-8.9-1.6-8.9,0,0-5.3,1.9-6.7,6.1h0Z"/>
  <g>
    <path class="st1" d="M256.8,65.6c-1.8-.5-3.2-1.4-4.5-2.6-1.2-1.3-2.1-2.8-2.5-4.6-.5-2-.5-3.8,0-5.4s1.5-3.1,3-4.2c1.5-1.2,3.3-2,5.5-2.4,2.3-.5,4.3-.4,5.9.3s2.6,1.7,2.9,3.2c.2,1.1,0,2-.7,2.8-.7.8-1.6,1.4-2.9,1.6-.3,0-.5,0-.6,0s-.2-.1-.2-.2c0,0,0-.3.2-.6s.3-.7.4-1.1,0-1,0-1.6c-.2-1-.7-1.7-1.6-2.1-.9-.4-2-.5-3.2-.2-1.7.3-2.9,1.3-3.6,2.9s-.8,3.5-.3,5.8c.5,2.3,1.5,4,3,5.1s3.2,1.4,5.2,1c1-.2,2-.6,2.8-1,.9-.5,1.8-1.1,2.5-2,0,0,.2-.1.4-.2.2,0,.5,0,.8.2s.4.4.5.7c0,.2,0,.3,0,.3-.8.5-1.9,2.2-3.1,3-1.2.8-2.5,1.3-4,1.6-2,.4-3.8.4-5.5-.1h0Z"/>
    <path class="st1" d="M276,60.5c-2.2-1.5-3.5-3.7-4.1-6.7s0-5.6,1.8-7.6c1.7-2.1,4.3-3.4,7.6-3.8,2.2-.3,4.2-.2,6,.4,1.8.6,3.2,1.6,4.2,3,1,1.4,1.7,3.1,1.9,5.1s0,3.8-.8,5.4c-.7,1.6-1.8,2.9-3.3,3.9s-3.2,1.6-5.3,1.9c-3.2.4-5.9,0-8-1.5h0ZM287.8,57.2c1-1.6,1.3-3.5,1-5.8-.1-1.2-.5-2.4-1-3.5-.5-1.2-1.3-2.1-2.3-2.8-1-.7-2.3-1-3.7-.8-2,.3-3.4,1.2-4.4,2.8-1,1.6-1.2,3.6-.9,6,.4,2.4,1.2,4.2,2.5,5.4,1.3,1.2,2.8,1.7,4.6,1.5,1.8-.2,3.2-1.2,4.1-2.7h0Z"/>
    <path class="st1" d="M302.4,58.3c-1.2-1-1.9-2.5-2.1-4.5-.3-3.8-.5-5.7-.8-9.4,0-.6-.4-.9-1-.8-.8,0-1.2.1-2,.2-.2-.3-.3-.5-.4-.9.7-.7,1.6-1.4,2.7-1.9,1.1-.5,2.1-.8,3-.9.4,0,.8,0,1.1.2.3.2.5.4.5.8.3,4.6.5,6.9.9,11.5.1,1.5.5,2.6,1.3,3.4s1.8,1.1,3.2,1c1.9-.1,3.4-.9,4.4-2.4s1.5-3.6,1.4-6.2c0-1.8-.3-3.3-.6-4.3-.3-1-.8-2-1.6-3-.2-.2-.4-.3-.6-.6.2-.2.3-.3.5-.6,2.2-.3,3.4-.4,5.6-.7.2,6.4.3,9.6.5,16,0,.8.4,1.2,1.2,1.1.7,0,1.4-.3,2.1-.7.4.4.5.6.9.9-.7.7-1.5,1.3-2.3,1.8-.9.5-1.7.7-2.4.7-1.1,0-2-.2-2.5-.8-.5-.6-.9-2.8-.9-2.8,0,0-1.6,2.1-2.9,2.8-1.3.7-2.7,1.1-4.3,1.2-2,.1-3.7-.3-4.9-1.3h0Z"/>
    <path class="st1" d="M342.9,58.3c-.5-.7-.7-1.7-.6-3.1.1-3.6.2-5.4.4-9.1,0-1.3-.2-2.3-.9-2.9s-1.6-1.1-2.9-1.1c-1.3,0-2.5.4-3.4,1.2s-1.8,2.1-2.3,3.6c-.5,1.6-.8,3.4-.8,5.4,0,1.2,0,2.1.3,2.9s.5,1.4,1,2.1c.2.2.3.4.5.6-.2.2-.3.3-.5.6-3,0-4.5,0-7.5,0-.2-.5-.3-.7-.4-1.2.3,0,.5-.1.8-.2.8-.1,1.3-.4,1.5-.8.2-.4.4-1.1.4-2.1,0-4.3,0-6.4,0-10.7,0-.3,0-.5-.2-.7-.1-.1-.4-.2-.7-.2-.8,0-1.2,0-1.9,0-.2-.4-.3-.6-.5-1,.9-.7,1.9-1.2,3-1.7,1.1-.4,2.1-.6,3-.6s.8.1,1,.3c.3.2.4.5.4.8,0,1.7,0,2.5,0,4.2.8-1.6,2-3,3.5-4s3.3-1.5,5-1.5c2.1,0,3.6.7,4.6,1.8.9,1.1,1.3,2.9,1.2,5.2-.2,3.7-.3,5.5-.5,9.2,0,.9.4,1.3,1.2,1.4.7,0,1.4-.2,2.2-.7.3.4.5.6.8,1-.8.7-1.6,1.2-2.5,1.6s-1.7.6-2.5.5c-1.2,0-2-.4-2.5-1.1h0Z"/>
    <path class="st1" d="M356.3,59.1c-.6-.7-.9-1.6-.8-2.8.4-5.3.6-8,1.1-13.3-1.6-.1-2.4-.2-3.9-.3,0-.7.1-1.1.3-1.3.1-.2.5-.3.9-.4,1.6-.2,2.8-.7,3.5-1.4.7-.7,1.4-1.8,1.8-3,.1-.4.3-.6.5-.7s.8,0,1.7,0c-.2,2-.3,3.1-.5,5.1,2.3.2,3.5.3,5.9.6,0,.5-.2,1-.4,1.4-.2.4-.5.7-.8.8-1.9-.2-2.9-.3-4.8-.5-.5,4.9-.7,7.3-1.1,12.2,0,.8,0,1.3.2,1.7.2.3.6.5,1.2.6.9,0,1.9-.2,3-.9.3.4.4.7.7,1.1-.8.8-1.8,1.3-2.9,1.8-1.1.4-2.1.6-3,.5-1.2-.1-2-.5-2.7-1.2h0Z"/>
    <path class="st1" d="M368,59.5c.3,0,.5,0,.8-.1.8,0,1.3-.2,1.6-.6.3-.4.5-1,.6-2,.5-4.2.8-6.3,1.3-10.6,0-.3,0-.5-.1-.7s-.3-.2-.7-.3c-.8,0-1.2-.1-1.9-.2-.1-.4-.2-.6-.3-1.1.9-.6,2-1,3.2-1.3,1.2-.3,2.2-.3,3.1-.2.4,0,.8.2,1,.5.2.3.3.6.3.9-.2,1.7-.3,2.5-.6,4.1.1,0,.1,0,.2,0,.8-1.6,1.8-2.9,3-3.7,1.2-.9,2.5-1.2,3.7-1,1.3.2,2.2.7,2.9,1.5.7.8,1,1.8.7,3-.2.9-.7,1.7-1.6,2.2-.9.5-2,.7-3.2.5-.6,0-.9-.3-.8-.5,0,0,.2-.3.4-.5.3-.3.5-.5.7-.8.2-.3.4-.6.4-1,0-.5,0-.9-.2-1.2s-.5-.5-1-.6c-.7-.1-1.5.1-2.3.8s-1.7,1.7-2.4,3.2c-.8,1.5-1.3,3.5-1.6,5.9-.2,1.1-.2,2.1,0,2.8s.4,1.4.8,2.1c.2.3.3.4.4.7-.2.2-.4.3-.6.5-3-.4-4.5-.6-7.5-1-.1-.5-.2-.7-.3-1.2h0Z"/>
    <path class="st1" d="M390.8,74.2c-1-.7-1.6-1.5-2-2.5-.4-.9-.5-1.8-.3-2.8.2-1.3.9-2.2,2-2.9s2.5-.9,4.2-.5c.2,0,.4.1.5.2.1,0,.1.2.1.3s-.3.3-.7.6c-.5.3-.9.7-1.3,1.1s-.7,1.1-.8,1.9c-.2,1,0,1.9.5,2.7.5.8,1.3,1.3,2.4,1.6,1.7.4,3.1,0,4.2-1.1,1.1-1.1,1.9-2.7,2.4-4.8.5-2.2.8-3.3,1.2-5.5-.9.9-2.1,1.6-3.6,1.9-1.4.3-2.9.3-4.5,0-2-.4-3.5-1.2-4.4-2.6-.9-1.3-1.2-2.9-.8-4.9.6-3.3.9-4.9,1.5-8.3,0-.3,0-.6,0-.7s-.3-.3-.6-.3c-.8-.2-1.2-.2-2-.4,0-.4-.1-.6-.2-1,.9-.5,1.9-.9,3.1-1.1s2.2-.2,3.2,0c.4,0,.8.2,1,.5.2.3.3.6.3.9-.8,4.1-1.2,6.2-2,10.3-.3,1.5-.2,2.7.4,3.6.5.9,1.5,1.5,2.8,1.8,1.9.4,3.5.1,4.9-.9,1.4-1,2.3-2.6,2.8-4.8.5-2.1.7-3.6.8-4.6s-.3-2-.9-3c-.1-.3-.2-.4-.4-.7.2-.2.4-.2.6-.4,2.2.3,3.3.5,5.6.8-1.9,7.9-2.8,11.8-4.7,19.7-.7,3-2.1,5.2-4.1,6.4-2,1.3-4.4,1.6-7.2,1-1.5-.3-2.8-.8-3.7-1.6h0Z"/>
    <path class="st1" d="M297.3,95.3c-1.5-.7-2.8-1.8-3.7-3.2-1-1.4-1.6-3-1.8-4.9-.2-2,0-3.8.5-5.4s1.6-2.9,3-3.8,3.1-1.6,5.1-1.7c2.1-.2,3.9.1,5.3,1,1.4.8,2.1,2,2.2,3.5,0,1.1-.2,2-.9,2.7s-1.6,1.1-2.7,1.2c-.3,0-.5,0-.6,0-.1,0-.2-.1-.2-.3,0,0,0-.3.2-.6.2-.3.3-.6.4-1.1.1-.4.1-.9.1-1.6,0-1-.5-1.8-1.2-2.3s-1.7-.7-2.9-.6c-1.5.1-2.7,1-3.5,2.5s-1,3.4-.8,5.7c.3,2.3,1,4.1,2.2,5.4,1.2,1.2,2.7,1.8,4.5,1.6.9,0,1.8-.3,2.6-.7.8-.4,1.7-.9,2.4-1.6,0,0,.2-.1.3-.1.2,0,.5,0,.7.3s.4.5.4.7c0,.2,0,.3,0,.3-.7.4-1.8,2-3,2.6-1.2.6-2.4,1-3.7,1.1-1.8.2-3.4-.1-4.9-.8h0Z"/>
    <path class="st1" d="M315,94.3c-.5-.6-.8-1.6-.9-3.1-.4-8.9-.7-13.3-1.1-22.1,0-.3,0-.5-.2-.6s-.4-.2-.6-.2c-.7,0-1.1,0-1.8,0-.2-.4-.3-.6-.5-.9.8-.7,1.7-1.3,2.7-1.8s2-.7,2.8-.8c.4,0,.7,0,1,.3.3.2.4.5.4.9.3,10.1.5,15.1.9,25.2,0,.4.1.7.3.9.2.2.5.3.9.3.7,0,1.3-.3,1.9-.9.3.4.5.6.8.9-.6.7-1.3,1.4-2.1,1.8-.8.5-1.5.7-2.1.8-1.1,0-1.9-.2-2.4-.8h0Z"/>
    <path class="st1" d="M327.6,93.2c-1-1.1-1.6-2.6-1.6-4.6,0-3.8,0-5.7,0-9.5,0-.6-.3-.9-.8-.9-.7,0-1.1,0-1.8,0-.1-.4-.2-.6-.3-.9.7-.7,1.5-1.2,2.5-1.7s1.9-.7,2.8-.7.7,0,1,.3c.2.2.4.5.4.8,0,4.6,0,6.9,0,11.5,0,1.5.3,2.7.9,3.5s1.5,1.2,2.8,1.2c1.7,0,3.1-.7,4.1-2.1,1-1.4,1.6-3.5,1.7-6.1,0-1.9,0-3.3-.2-4.4-.2-1.1-.6-2.1-1.2-3.1-.2-.2-.3-.4-.5-.6.2-.2.3-.3.5-.5,2-.1,3-.2,5.1-.3-.3,6.4-.4,9.6-.7,16,0,.8.3,1.2,1,1.2.6,0,1.3-.2,2-.6.3.4.4.6.7,1-.7.7-1.4,1.2-2.2,1.6-.8.4-1.5.6-2.2.6-1,0-1.7-.4-2.2-1-.4-.6-.6-2.8-.6-2.8,0,0-1.6,2-2.8,2.6-1.2.6-2.5.9-3.9.9-1.8,0-3.2-.6-4.3-1.7h0Z"/>
    <path class="st1" d="M353.1,95.2c-1.2-.5-2.2-1.2-2.9-2,.7-9.5,1-14.2,1.7-23.7,0-.3,0-.5-.1-.7-.1-.1-.3-.2-.6-.2-.7,0-1.1,0-1.8-.1-.1-.4-.2-.6-.4-1,.8-.6,1.8-1.1,2.9-1.5,1.1-.4,2-.5,2.9-.4.4,0,.7.2,1,.4.2.2.3.6.3.9-.9,10.2-1.3,15.4-2.1,25.6,1,.9,2.3,1.4,3.9,1.6,1.7.2,3.1-.4,4.3-1.7,1.1-1.3,1.9-3.1,2.1-5.5.3-2.3,0-4.3-.9-5.8s-2.1-2.4-3.8-2.6c-.7,0-1.3,0-1.8,0s-.7.2-.8.2c-.1,0-.3-.1-.4-.3s-.2-.4-.2-.6c0-.3.2-.6.5-.7,1.2-.6,2.7-.8,4.2-.6,1.6.2,3.1.7,4.3,1.7,1.2.9,2.1,2.1,2.6,3.6.5,1.5.7,3.1.5,4.9-.3,2-.9,3.8-2,5.3s-2.4,2.6-4,3.4-3.3,1-5.2.8c-1.5-.1-2.9-.5-4.1-1h0Z"/>
  </g>
</svg>