<?xml version="1.0" encoding="UTF-8"?>
<svg id="Layer_3" xmlns="http://www.w3.org/2000/svg" version="1.1" viewBox="0 0 466.4 318.8">
  <!-- Generator: Adobe Illustrator 29.2.1, SVG Export Plug-In . SVG Version: 2.1.0 Build 116)  -->
  <defs>
    <style>
      .st0 {
        fill: #80b019;
      }

      .st1 {
        fill: #5c4f48;
      }
    </style>
  </defs>
  <g>
    <path class="st1" d="M420.9,97.4c-7.9-44.2-48.1-67.4-84.6-70.6-14.9-1.3-80-1.5-193.4-.5h-9.1c0,0-.2-6.8-.2-6.8l9.2-.4c42.3-.4,171.2-1.6,194.1.5,47,4.2,82.2,35,89.6,76.5l-5.7,1.2h0Z"/>
    <path class="st1" d="M358.2,185c-5.1,0-10.3-.6-15.5-1.9-16.6-4.2-31.3-15.4-39.2-30-7.1-13.1-8.3-27.9-3.5-41.8,5.8-16.8,20.8-29.4,38.3-32.1,15.2-2.4,29.2,3.4,38.5,15.9,10.1,13.6,9,33-2.6,45.2-6,6.3-14.9,9.7-23.9,9-8.4-.7-15.9-4.9-20.6-11.6-6.6-9.5-5.3-22.4,3-30.8,3.8-3.8,9.6-5.1,14.2-3,4.1,1.9,6.3,5.9,5.9,10.9-.4,5.5-5.1,8.1-8.5,10-.9.5-1.7,1-2.4,1.4-3.9,2.8-4.9,5.8-3.4,10,3.2,3.1,7.5,5,12.4,5.3,6.7.5,13.3-2,17.7-6.6,9.1-9.5,10-24.7,2.1-35.3-7.6-10.2-18.7-14.8-31.2-12.9-14.5,2.2-27.5,13.1-32.3,27.1-4.1,11.8-3,24.5,3,35.7,6.9,12.7,19.7,22.5,34.3,26.2,27.1,6.8,55.3-7.4,68.6-34.6,12.3-25.2,8.6-56.6-9.2-78.2-19.3-23.4-49.2-38.1-75.8-36.4l-.3-7c29-1.8,61.7,15,82.6,40.3,19.7,23.9,23.2,56.9,9.5,84.8-12.4,25.3-36.5,40.6-61.9,40.6h0ZM342.2,110.6c-1.3,0-2.8.5-4,1.7-3.2,3.3-4.9,7.5-5,11.8,1.1-1.5,2.6-2.8,4.3-4.1,1-.7,2-1.3,3-1.8,2.1-1.2,4.5-2.5,4.6-3.9.2-2.6-1-3.2-1.4-3.4-.4-.2-1-.3-1.6-.3h0Z"/>
    <path class="st0" d="M286.2,137.2c12.8,5,18.4,21.4,18.2,22,0,0-15.5,8.8-28.3,3.8-12.8-5.1-18.2-22-18.2-22,0,0,15.5-8.8,28.3-3.7Z"/>
    <path class="st0" d="M302.3,100.2c-1.9,7.8-10.9,12.4-11.3,12.2,0,0-6.3-8.2-4.4-16,1.9-7.8,11.2-12.2,11.2-12.2,0,0,6.3,8.2,4.4,16h0Z"/>
    <path class="st0" d="M434.3,120.9c-5.9-8.3-2.8-20.7-2.4-21,0,0,13.2.8,19.1,9.1,5.9,8.3,2.4,21,2.4,21,0,0-13.2-.8-19.1-9.1h0Z"/>
    <path class="st0" d="M385.7,155.4c-7.6-2.6-11.3-12-11.2-12.3,0,0,8.8-5.5,16.4-2.9,7.6,2.6,11.2,12.4,11.2,12.4,0,0-8.8,5.5-16.4,2.9h0Z"/>
    <path class="st0" d="M396.5,26.4c-8.1,5.1-19.5,1.4-19.8,1,0,0,1.5-12.2,9.6-17.3,8.1-5.1,19.8-1,19.8-1,0,0-1.5,12.3-9.6,17.3Z"/>
    <path class="st0" d="M365,11.9c-1.5-5.7,2.7-11.8,3-11.9,0,0,7,3.1,8.5,8.9,1.5,5.7-3,11.9-3,11.9,0,0-7-3.1-8.5-8.8Z"/>
    <path class="st0" d="M388.2,82.2c2.5-9.9,14.1-15.5,14.6-15.4,0,0,7.9,10.6,5.3,20.5-2.5,9.9-14.6,15.4-14.6,15.4,0,0-7.9-10.6-5.4-20.5h0Z"/>
    <path class="st0" d="M390.1,186.9c3.1-10.4,15.5-15.8,16-15.6,0,0,7.9,11.5,4.8,21.9-3.1,10.4-16,15.6-16,15.6,0,0-7.9-11.5-4.8-21.9h0Z"/>
    <path class="st0" d="M365.2,163.6c4.9,1.8,7.1,7.8,7,8.1,0,0-5.7,3.4-10.6,1.6-4.8-1.8-7-8.1-7-8.1,0,0,5.7-3.4,10.6-1.6h0Z"/>
    <path class="st0" d="M337.7,152.5c5-3.4,12.3-1.4,12.5-1.1,0,0-.7,7.8-5.6,11.1-5,3.4-12.5,1.1-12.5,1.1,0,0,.6-7.8,5.7-11.1h0Z"/>
    <path class="st0" d="M354,131.6c1.4,4.2-1.4,8.9-1.6,8.9,0,0-5.3-1.9-6.7-6.1-1.4-4.1,1.6-8.9,1.6-8.9,0,0,5.3,1.9,6.7,6.1h0Z"/>
    <path class="st1" d="M114.8,185c-25.4,0-49.5-15.3-61.9-40.6-13.6-27.9-9.5-62.6,10.2-86.5,20.9-25.2,53-40.4,81.9-38.6l-.4,7.1c-26.5-1.7-56.4,13-75.7,36.4-17.8,21.6-21.5,53.1-9.2,78.2,13.3,27.2,41.5,41.4,68.6,34.6,14.6-3.7,27.4-13.4,34.3-26.2,6-11.2,7.1-23.8,3-35.7-4.8-13.9-17.8-24.8-32.2-27.1-12.5-1.9-23.6,2.6-31.2,12.9-7.9,10.6-7,25.8,2.1,35.3,4.4,4.7,11.1,7.1,17.7,6.6,4.8-.4,9.1-2.2,12.4-5.3,1.5-4.2.5-7.2-3.4-10-.6-.4-1.5-.9-2.4-1.4-3.4-1.9-8.1-4.6-8.5-10-.4-5,1.8-9.1,5.9-10.9,4.6-2.1,10.4-.9,14.2,3,8.3,8.4,9.6,21.3,3,30.8-4.6,6.7-12.1,10.9-20.6,11.6-8.9.7-17.8-2.7-23.9-9-11.6-12.2-12.7-31.6-2.6-45.2,9.3-12.5,23.3-18.2,38.5-15.9,17.5,2.7,32.5,15.3,38.3,32.1,4.8,13.9,3.5,28.7-3.5,41.8-7.9,14.6-22.5,25.8-39.2,30-5.2,1.3-10.4,1.9-15.5,1.9h0ZM130.8,110.6c-.6,0-1.1.1-1.6.3-.4.2-1.6.8-1.4,3.4.1,1.4,2.5,2.8,4.6,3.9,1,.6,2.1,1.2,3,1.8,1.7,1.2,3.2,2.6,4.3,4.1,0-4.3-1.7-8.5-5-11.8-1.2-1.2-2.7-1.7-4-1.7h0Z"/>
    <path class="st0" d="M187.4,127.1c-11.2,8.1-12.5,25.3-12.1,25.8,0,0,17.2,4.7,28.4-3.4,11.2-8.1,12.1-25.9,12.1-25.9,0,0-17.2-4.7-28.4,3.4h0Z"/>
    <path class="st0" d="M173.5,109.1c1.9,7.8,10.9,12.4,11.3,12.3,0,0,6.3-8.2,4.4-16.1-1.9-7.8-11.3-12.2-11.3-12.2,0,0-6.3,8.2-4.4,16h0Z"/>
    <path class="st0" d="M31.3,154.3c11.9-6.9,15-23.9,14.6-24.5,0,0-16.6-6.4-28.6.6-11.9,6.9-14.6,24.5-14.6,24.5,0,0,16.6,6.4,28.5-.6h0Z"/>
    <path class="st0" d="M56.3,160.2c-.4-9.1-9.6-16.2-10-16.1,0,0-8.8,7.9-8.4,17,.4,9.2,10,16.1,10,16.1,0,0,8.8-7.9,8.4-17h0Z"/>
    <path class="st0" d="M63.2,31.5c9.1,6.5,22.7,3.1,23,2.6,0,0-.9-14.4-10-20.9-9.1-6.5-23.1-2.6-23.1-2.6,0,0,.9,14.4,10,20.9h0Z"/>
    <path class="st0" d="M63.6,49.1c5-1.6,7.6-7.6,7.5-7.9,0,0-5.6-3.7-10.6-2.2-5,1.6-7.5,7.9-7.5,7.9,0,0,5.6,3.7,10.6,2.2Z"/>
    <path class="st0" d="M84.6,83.3c-2.6-9.9-14.1-15.5-14.6-15.4,0,0-7.9,10.6-5.4,20.5,2.6,9.9,14.6,15.4,14.6,15.4,0,0,7.9-10.6,5.4-20.5h0Z"/>
    <path class="st0" d="M128.6,192.8c-5.2-6.1-15.2-6.2-15.6-5.9,0,0-2,10.2,3.2,16.3,5.2,6.1,15.5,5.9,15.5,5.9,0,0,2-10.2-3.2-16.3h0Z"/>
    <path class="st0" d="M92.8,142.1c2.2-8.4-4-17.3-4.4-17.4,0,0-10.2,4.6-12.4,13-2.2,8.4,4.4,17.4,4.4,17.4,0,0,10.2-4.6,12.4-13Z"/>
    <path class="st0" d="M145.6,142.1c-5.4-.1-10,5-10,5.2,0,0,4.3,5.6,9.7,5.7,5.4.1,10-5.2,10-5.2,0,0-4.3-5.6-9.7-5.7h0Z"/>
    <path class="st0" d="M115.6,131.9c-1.4,4.1,1.4,8.9,1.6,8.9,0,0,5.3-1.9,6.7-6.1,1.4-4.2-1.6-8.9-1.6-8.9,0,0-5.3,1.9-6.7,6.1h0Z"/>
    <g>
      <path class="st1" d="M162.4,65.6c-1.8-.5-3.2-1.4-4.5-2.6-1.2-1.3-2.1-2.8-2.5-4.6-.5-2-.5-3.8,0-5.4s1.5-3.1,3-4.2c1.5-1.2,3.3-2,5.5-2.4,2.3-.5,4.3-.4,5.9.3s2.6,1.7,2.9,3.2c.2,1.1,0,2-.7,2.8-.7.8-1.6,1.4-2.9,1.6-.3,0-.5,0-.6,0s-.2-.1-.2-.2c0,0,0-.3.2-.6s.3-.7.4-1.1,0-1,0-1.6c-.2-1-.7-1.7-1.6-2.1-.9-.4-2-.5-3.2-.2-1.7.3-2.9,1.3-3.6,2.9s-.8,3.5-.3,5.8c.5,2.3,1.5,4,3,5.1s3.2,1.4,5.2,1c1-.2,2-.6,2.8-1,.9-.5,1.8-1.1,2.5-2,0,0,.2-.1.4-.2.2,0,.5,0,.8.2s.4.4.5.7c0,.2,0,.3,0,.3-.8.5-1.9,2.2-3.1,3-1.2.8-2.5,1.3-4,1.6-2,.4-3.8.4-5.5-.1h0Z"/>
      <path class="st1" d="M181.6,60.5c-2.2-1.5-3.5-3.7-4.1-6.7s0-5.6,1.8-7.6c1.7-2.1,4.3-3.4,7.6-3.8,2.2-.3,4.2-.2,6,.4,1.8.6,3.2,1.6,4.2,3,1,1.4,1.7,3.1,1.9,5.1s0,3.8-.8,5.4c-.7,1.6-1.8,2.9-3.3,3.9s-3.2,1.6-5.3,1.9c-3.2.4-5.9,0-8-1.5h0ZM193.4,57.2c1-1.6,1.3-3.5,1-5.8-.1-1.2-.5-2.4-1-3.5-.5-1.2-1.3-2.1-2.3-2.8-1-.7-2.3-1-3.7-.8-2,.3-3.4,1.2-4.4,2.8-1,1.6-1.2,3.6-.9,6,.4,2.4,1.2,4.2,2.5,5.4,1.3,1.2,2.8,1.7,4.6,1.5,1.8-.2,3.2-1.2,4.1-2.7h0Z"/>
      <path class="st1" d="M207.9,58.3c-1.2-1-1.9-2.5-2.1-4.5-.3-3.8-.5-5.7-.8-9.4,0-.6-.4-.9-1-.8-.8,0-1.2.1-2,.2-.2-.3-.3-.5-.4-.9.7-.7,1.6-1.4,2.7-1.9,1.1-.5,2.1-.8,3-.9.4,0,.8,0,1.1.2.3.2.5.4.5.8.3,4.6.5,6.9.9,11.5.1,1.5.5,2.6,1.3,3.4s1.8,1.1,3.2,1c1.9-.1,3.4-.9,4.4-2.4s1.5-3.6,1.4-6.2c0-1.8-.3-3.3-.6-4.3-.3-1-.8-2-1.6-3-.2-.2-.4-.3-.6-.6.2-.2.3-.3.5-.6,2.2-.3,3.4-.4,5.6-.7.2,6.4.3,9.6.5,16,0,.8.4,1.2,1.2,1.1.7,0,1.4-.3,2.1-.7.4.4.5.6.9.9-.7.7-1.5,1.3-2.3,1.8-.9.5-1.7.7-2.4.7-1.1,0-2-.2-2.5-.8-.5-.6-.9-2.8-.9-2.8,0,0-1.6,2.1-2.9,2.8-1.3.7-2.7,1.1-4.3,1.2-2,.1-3.7-.3-4.9-1.3h0Z"/>
      <path class="st1" d="M248.5,58.3c-.5-.7-.7-1.7-.6-3.1.1-3.6.2-5.4.4-9.1,0-1.3-.2-2.3-.9-2.9s-1.6-1.1-2.9-1.1c-1.3,0-2.5.4-3.4,1.2s-1.8,2.1-2.3,3.6c-.5,1.6-.8,3.4-.8,5.4,0,1.2,0,2.1.3,2.9s.5,1.4,1,2.1c.2.2.3.4.5.6-.2.2-.3.3-.5.6-3,0-4.5,0-7.5,0-.2-.5-.3-.7-.4-1.2.3,0,.5-.1.8-.2.8-.1,1.3-.4,1.5-.8.2-.4.4-1.1.4-2.1,0-4.3,0-6.4,0-10.7,0-.3,0-.5-.2-.7-.1-.1-.4-.2-.7-.2-.8,0-1.2,0-1.9,0-.2-.4-.3-.6-.5-1,.9-.7,1.9-1.2,3-1.7,1.1-.4,2.1-.6,3-.6s.8.1,1,.3c.3.2.4.5.4.8,0,1.7,0,2.5,0,4.2.8-1.6,2-3,3.5-4s3.3-1.5,5-1.5c2.1,0,3.6.7,4.6,1.8.9,1.1,1.3,2.9,1.2,5.2-.2,3.7-.3,5.5-.5,9.2,0,.9.4,1.3,1.2,1.4.7,0,1.4-.2,2.2-.7.3.4.5.6.8,1-.8.7-1.6,1.2-2.5,1.6s-1.7.6-2.5.5c-1.2,0-2-.4-2.5-1.1h0Z"/>
      <path class="st1" d="M261.9,59.1c-.6-.7-.9-1.6-.8-2.8.4-5.3.6-8,1.1-13.3-1.6-.1-2.4-.2-3.9-.3,0-.7.1-1.1.3-1.3.1-.2.5-.3.9-.4,1.6-.2,2.8-.7,3.5-1.4.7-.7,1.4-1.8,1.8-3,.1-.4.3-.6.5-.7s.8,0,1.7,0c-.2,2-.3,3.1-.5,5.1,2.3.2,3.5.3,5.9.6,0,.5-.2,1-.4,1.4-.2.4-.5.7-.8.8-1.9-.2-2.9-.3-4.8-.5-.5,4.9-.7,7.3-1.1,12.2,0,.8,0,1.3.2,1.7.2.3.6.5,1.2.6.9,0,1.9-.2,3-.9.3.4.4.7.7,1.1-.8.8-1.8,1.3-2.9,1.8-1.1.4-2.1.6-3,.5-1.2-.1-2-.5-2.7-1.2h0Z"/>
      <path class="st1" d="M273.5,59.5c.3,0,.5,0,.8-.1.8,0,1.3-.2,1.6-.6.3-.4.5-1,.6-2,.5-4.2.8-6.3,1.3-10.6,0-.3,0-.5-.1-.7s-.3-.2-.7-.3c-.8,0-1.2-.1-1.9-.2-.1-.4-.2-.6-.3-1.1.9-.6,2-1,3.2-1.3,1.2-.3,2.2-.3,3.1-.2.4,0,.8.2,1,.5.2.3.3.6.3.9-.2,1.7-.3,2.5-.6,4.1.1,0,.1,0,.2,0,.8-1.6,1.8-2.9,3-3.7,1.2-.9,2.5-1.2,3.7-1,1.3.2,2.2.7,2.9,1.5.7.8,1,1.8.7,3-.2.9-.7,1.7-1.6,2.2-.9.5-2,.7-3.2.5-.6,0-.9-.3-.8-.5,0,0,.2-.3.4-.5.3-.3.5-.5.7-.8.2-.3.4-.6.4-1,0-.5,0-.9-.2-1.2s-.5-.5-1-.6c-.7-.1-1.5.1-2.3.8s-1.7,1.7-2.4,3.2c-.8,1.5-1.3,3.5-1.6,5.9-.2,1.1-.2,2.1,0,2.8s.4,1.4.8,2.1c.2.3.3.4.4.7-.2.2-.4.3-.6.5-3-.4-4.5-.6-7.5-1-.1-.5-.2-.7-.3-1.2h0Z"/>
      <path class="st1" d="M296.4,74.2c-1-.7-1.6-1.5-2-2.5-.4-.9-.5-1.8-.3-2.8.2-1.3.9-2.2,2-2.9s2.5-.9,4.2-.5c.2,0,.4.1.5.2.1,0,.1.2.1.3s-.3.3-.7.6c-.5.3-.9.7-1.3,1.1s-.7,1.1-.8,1.9c-.2,1,0,1.9.5,2.7.5.8,1.3,1.3,2.4,1.6,1.7.4,3.1,0,4.2-1.1,1.1-1.1,1.9-2.7,2.4-4.8.5-2.2.8-3.3,1.2-5.5-.9.9-2.1,1.6-3.6,1.9-1.4.3-2.9.3-4.5,0-2-.4-3.5-1.2-4.4-2.6-.9-1.3-1.2-2.9-.8-4.9.6-3.3.9-4.9,1.5-8.3,0-.3,0-.6,0-.7s-.3-.3-.6-.3c-.8-.2-1.2-.2-2-.4,0-.4-.1-.6-.2-1,.9-.5,1.9-.9,3.1-1.1s2.2-.2,3.2,0c.4,0,.8.2,1,.5.2.3.3.6.3.9-.8,4.1-1.2,6.2-2,10.3-.3,1.5-.2,2.7.4,3.6.5.9,1.5,1.5,2.8,1.8,1.9.4,3.5.1,4.9-.9,1.4-1,2.3-2.6,2.8-4.8.5-2.1.7-3.6.8-4.6s-.3-2-.9-3c-.1-.3-.2-.4-.4-.7.2-.2.4-.2.6-.4,2.2.3,3.3.5,5.6.8-1.9,7.9-2.8,11.8-4.7,19.7-.7,3-2.1,5.2-4.1,6.4-2,1.3-4.4,1.6-7.2,1-1.5-.3-2.8-.8-3.7-1.6h0Z"/>
      <path class="st1" d="M202.9,95.3c-1.5-.7-2.8-1.8-3.7-3.2-1-1.4-1.6-3-1.8-4.9-.2-2,0-3.8.5-5.4s1.6-2.9,3-3.8,3.1-1.6,5.1-1.7c2.1-.2,3.9.1,5.3,1,1.4.8,2.1,2,2.2,3.5,0,1.1-.2,2-.9,2.7s-1.6,1.1-2.7,1.2c-.3,0-.5,0-.6,0-.1,0-.2-.1-.2-.3,0,0,0-.3.2-.6.2-.3.3-.6.4-1.1.1-.4.1-.9.1-1.6,0-1-.5-1.8-1.2-2.3s-1.7-.7-2.9-.6c-1.5.1-2.7,1-3.5,2.5s-1,3.4-.8,5.7c.3,2.3,1,4.1,2.2,5.4,1.2,1.2,2.7,1.8,4.5,1.6.9,0,1.8-.3,2.6-.7.8-.4,1.7-.9,2.4-1.6,0,0,.2-.1.3-.1.2,0,.5,0,.7.3s.4.5.4.7c0,.2,0,.3,0,.3-.7.4-1.8,2-3,2.6-1.2.6-2.4,1-3.7,1.1-1.8.2-3.4-.1-4.9-.8h0Z"/>
      <path class="st1" d="M220.6,94.3c-.5-.6-.8-1.6-.9-3.1-.4-8.9-.7-13.3-1.1-22.1,0-.3,0-.5-.2-.6s-.4-.2-.6-.2c-.7,0-1.1,0-1.8,0-.2-.4-.3-.6-.5-.9.8-.7,1.7-1.3,2.7-1.8s2-.7,2.8-.8c.4,0,.7,0,1,.3.3.2.4.5.4.9.3,10.1.5,15.1.9,25.2,0,.4.1.7.3.9.2.2.5.3.9.3.7,0,1.3-.3,1.9-.9.3.4.5.6.8.9-.6.7-1.3,1.4-2.1,1.8-.8.5-1.5.7-2.1.8-1.1,0-1.9-.2-2.4-.8h0Z"/>
      <path class="st1" d="M233.2,93.2c-1-1.1-1.6-2.6-1.6-4.6,0-3.8,0-5.7,0-9.5,0-.6-.3-.9-.8-.9-.7,0-1.1,0-1.8,0-.1-.4-.2-.6-.3-.9.7-.7,1.5-1.2,2.5-1.7s1.9-.7,2.8-.7.7,0,1,.3c.2.2.4.5.4.8,0,4.6,0,6.9,0,11.5,0,1.5.3,2.7.9,3.5s1.5,1.2,2.8,1.2c1.7,0,3.1-.7,4.1-2.1,1-1.4,1.6-3.5,1.7-6.1,0-1.9,0-3.3-.2-4.4-.2-1.1-.6-2.1-1.2-3.1-.2-.2-.3-.4-.5-.6.2-.2.3-.3.5-.5,2-.1,3-.2,5.1-.3-.3,6.4-.4,9.6-.7,16,0,.8.3,1.2,1,1.2.6,0,1.3-.2,2-.6.3.4.4.6.7,1-.7.7-1.4,1.2-2.2,1.6-.8.4-1.5.6-2.2.6-1,0-1.7-.4-2.2-1-.4-.6-.6-2.8-.6-2.8,0,0-1.6,2-2.8,2.6-1.2.6-2.5.9-3.9.9-1.8,0-3.2-.6-4.3-1.7h0Z"/>
      <path class="st1" d="M258.7,95.2c-1.2-.5-2.2-1.2-2.9-2,.7-9.5,1-14.2,1.7-23.7,0-.3,0-.5-.1-.7-.1-.1-.3-.2-.6-.2-.7,0-1.1,0-1.8-.1-.1-.4-.2-.6-.4-1,.8-.6,1.8-1.1,2.9-1.5,1.1-.4,2-.5,2.9-.4.4,0,.7.2,1,.4.2.2.3.6.3.9-.9,10.2-1.3,15.4-2.1,25.6,1,.9,2.3,1.4,3.9,1.6,1.7.2,3.1-.4,4.3-1.7,1.1-1.3,1.9-3.1,2.1-5.5.3-2.3,0-4.3-.9-5.8s-2.1-2.4-3.8-2.6c-.7,0-1.3,0-1.8,0s-.7.2-.8.2c-.1,0-.3-.1-.4-.3s-.2-.4-.2-.6c0-.3.2-.6.5-.7,1.2-.6,2.7-.8,4.2-.6,1.6.2,3.1.7,4.3,1.7,1.2.9,2.1,2.1,2.6,3.6.5,1.5.7,3.1.5,4.9-.3,2-.9,3.8-2,5.3s-2.4,2.6-4,3.4-3.3,1-5.2.8c-1.5-.1-2.9-.5-4.1-1h0Z"/>
    </g>
  </g>
  <g>
    <path class="st1" d="M6.7,258.2H0v-3.9h6.7v-8.7l4.8-5.8h3.9v14.4h11.6v3.9h-11.6v29.8c0,5.8,2.2,8.7,6.7,8.7s3.1-.2,4.1-.6c1.1-.4,2.1-.8,3.1-1.4l1,1.9c-.5.4-1.1.8-1.8,1.2s-1.5.9-2.4,1.2-2.1.7-3.4,1c-1.3.3-2.8.4-4.4.4-3.4,0-6.2-1-8.3-3-2.1-2-3.2-5.2-3.2-9.5v-29.8h0Z"/>
    <path class="st1" d="M65.5,299.5l-3.4-4.3h-.5c-1,1.2-2.5,2.4-4.7,3.6-2.2,1.1-5.1,1.7-8.8,1.7s-2.8-.2-4.4-.6c-1.6-.4-3.1-1.1-4.5-2.2s-2.6-2.4-3.6-4.1c-1-1.7-1.4-3.9-1.4-6.5s.7-4.8,2-6.5,3.1-3.1,5.4-4.1c2.2-1,4.8-1.8,7.8-2.2s6.1-.6,9.3-.6h2.9c0-3.3-.3-6.1-.8-8.2-.5-2.1-1.2-3.8-2.1-5-.9-1.2-2-2-3.2-2.5s-2.6-.7-4-.7c-2.7,0-5,.6-6.8,1.7s-3.1,3.3-3.8,6.5h-4.3c0-1.7.1-3.2.3-4.7.2-1.4.9-2.8,2.1-4,.6-.6,1.4-1.1,2.4-1.5,1.1-.5,2.2-.8,3.5-1.1s2.6-.5,4.1-.6c1.4-.1,2.9-.2,4.4-.2,2.2,0,4.3.2,6.3.7s3.8,1.4,5.4,2.9c1.6,1.4,2.8,3.5,3.8,6.2s1.4,6.1,1.4,10.4v26h-4.8ZM61.7,277.4h-2.9c-4.8,0-8.6.9-11.3,2.6-2.7,1.8-4.1,4.1-4.1,7s.3,2.9.8,4c.5,1.1,1.2,2.1,2,2.9.8.8,1.8,1.3,2.9,1.7,1.1.4,2.2.5,3.5.5,2.4,0,4.2-.6,5.6-1.8s2.6-2.5,3.5-4v-13h0Z"/>
    <path class="st1" d="M103.6,286.1l13.5-31.8h4.8l-19.7,46.2h-1.9l-14.9-35.1c-.8-1.8-1.5-3.3-2.2-4.5-.7-1.2-1.4-2.2-2.2-3-.8-.8-1.6-1.4-2.5-1.7s-1.9-.6-3.1-.7v-1.9c.3,0,.8,0,1.5-.1.7,0,1.3-.1,1.8-.1,1.4,0,2.9.2,4.4.5,1.5.3,3,.9,4.4,1.8s2.8,2.1,4,3.7c1.3,1.6,2.5,3.6,3.6,6.1l8.7,20.7h0Z"/>
    <path class="st1" d="M131.3,265.9c0-2.9-.4-5.2-1.2-7-.8-1.8-2.6-2.6-5.5-2.6h-1v-1.9h7.7c2.4,0,4.3.4,5.5,1.1s2.1,1.8,2.6,3.3h.5c1-1.2,2.4-2.4,4.3-3.6s4.3-1.7,7.2-1.7,2,.1,3.1.3,2,.6,2.7,1.1c.7.5,1.3,1.1,1.8,1.8.5.7,1,1.5,1.5,2.5l-3.9,2.9c-.7-1-1.8-1.7-3.1-2.2-1.4-.5-2.9-.7-4.6-.7s-3.7.4-5.3,1.3-2.9,2-3.9,3.5v35.6h-8.7v-33.7h0Z"/>
    <path class="st1" d="M178.9,299.5h-8.7v-33.7c0-2.9-.4-5.2-1.2-7-.8-1.8-2.6-2.6-5.5-2.6h-1.9v-1.9h8.7c1.7,0,3.1.1,4.2.4,1.1.3,2,.9,2.7,1.7.7.9,1.1,2,1.4,3.6.3,1.5.4,3.5.4,5.8v33.7h0ZM178.3,244.2c0,1.4-.4,2.4-1.2,3.2-.8.8-1.9,1.1-3.2,1.1s-2.7-.6-3.8-1.8-1.6-2.7-1.6-4.3.4-2.4,1.2-3.2c.8-.8,1.9-1.1,3.2-1.1s2.7.6,3.8,1.8,1.6,2.7,1.6,4.3h0Z"/>
    <path class="st1" d="M211,253.4c3.4,0,6.3.3,8.6.8,2.3.5,4.1,1.4,5.3,2.6s1,1.2,1.4,1.9c.4.7.6,1.5.7,2.5s.2,2.1.2,3.4,0,2.9,0,4.7h-1.9c-.3-4.1-1.6-7.1-3.9-9.1s-5.2-2.9-8.6-2.9-4.5.5-6.2,1.5-3.2,2.4-4.3,4.2c-1.1,1.8-2,3.9-2.5,6.2-.5,2.4-.8,5-.8,7.8s.3,5.3.8,7.8c.5,2.4,1.4,4.5,2.5,6.2s2.6,3.2,4.3,4.2c1.7,1,3.8,1.5,6.2,1.5s6.2-.7,8.3-2c2.1-1.4,4-3.2,5.7-5.7l1.9,1.4c-2.2,3.7-4.7,6.2-7.6,7.8-2.9,1.5-6.3,2.3-10.1,2.3s-6.7-.6-9.4-1.9c-2.7-1.2-4.9-2.9-6.6-5s-3-4.6-3.9-7.5c-.9-2.9-1.3-5.9-1.3-9.2s.4-6.3,1.3-9.2c.9-2.9,2.2-5.3,3.9-7.5,1.7-2.1,3.9-3.8,6.6-5s5.8-1.9,9.4-1.9h0Z"/>
    <path class="st1" d="M247.6,258.2c1.2-1.2,2.9-2.3,5-3.3,2.1-1,4.6-1.5,7.5-1.5s4.1.2,6,.7c2,.5,3.7,1.4,5.2,2.7,1.5,1.3,2.8,3.1,3.7,5.3.9,2.2,1.4,5.1,1.4,8.6v28.9h-8.7v-28.9c0-2.4-.3-4.4-.9-6.1-.6-1.7-1.4-3-2.4-4s-2.1-1.8-3.4-2.2c-1.2-.5-2.5-.7-3.9-.7-1.9,0-3.7.5-5.3,1.5-1.6,1-3.1,2.2-4.3,3.6v36.8h-8.7v-52c0-2.9-.4-5.2-1.2-7-.8-1.8-2.6-2.6-5.5-2.6h-1.9v-1.9h8.7c1.7,0,3.1.1,4.2.4,1.1.3,2,.9,2.7,1.7s1.1,2,1.4,3.6c.2,1.5.4,3.5.4,5.8v10.6h0Z"/>
    <path class="st1" d="M325.5,278.4h-29.1c0,2.6.3,5.1.9,7.3s1.4,4.2,2.5,5.8,2.5,2.9,4.1,3.8,3.4,1.4,5.5,1.4c3.1,0,5.8-.7,7.8-2,2.1-1.4,4-3.2,5.6-5.7l1.9,1.4c-2.2,3.7-4.7,6.2-7.5,7.8-2.9,1.5-6.1,2.3-9.8,2.3s-6.4-.6-8.9-1.9c-2.5-1.2-4.6-2.9-6.3-5-1.7-2.1-3-4.6-3.8-7.5-.8-2.9-1.2-5.9-1.2-9.2s.4-6.3,1.3-9.2c.9-2.9,2.1-5.3,3.8-7.5,1.7-2.1,3.7-3.8,6.1-5s5.1-1.9,8.1-1.9c6.5,0,11.4,1.8,14.5,5.5,3.1,3.7,4.7,8.9,4.7,15.7l-.2,3.9h0ZM316.5,274.5c0-5.6-.8-9.9-2.5-12.8s-4.2-4.5-7.6-4.5-2.8.4-4,1.3-2.3,2.1-3.2,3.6c-.9,1.5-1.6,3.4-2.1,5.5-.5,2.1-.8,4.4-.8,6.9h20.2Z"/>
    <path class="st1" d="M368.7,288c0,2-.4,3.9-1.3,5.4s-2,2.8-3.5,3.9c-1.5,1.1-3.3,1.9-5.3,2.4-2.1.5-4.3.8-6.7.8-3.9,0-7-.3-9.4-1s-4.3-1.6-5.5-2.8c-1.2-1.2-1.9-2.6-2.1-4.1-.2-1.5-.3-3.5-.3-6h1.9c.5,3.1,1.9,5.6,4,7.4,2.2,1.8,5.3,2.7,9.4,2.7s6.3-.6,8-1.9,2.5-2.9,2.5-4.8-.7-3.5-2.2-4.9c-1.4-1.3-3.6-2.6-6.5-3.8l-5.8-2.4c-3.7-1.5-6.5-3.2-8.5-5.2s-3-4.6-3-7.8.4-3.9,1.2-5.4c.8-1.5,1.9-2.8,3.3-3.9s3.1-1.9,5-2.4c1.9-.5,4-.8,6.4-.8,3.7,0,6.7.3,9,1s4.2,1.6,5.4,2.8,1.9,2.6,2.1,4.1c.2,1.5.3,3.5.3,6h-1.9c-.5-3.1-1.8-5.6-4-7.4-2.1-1.8-5.1-2.7-9-2.7s-5.5.6-7.2,1.9-2.5,2.9-2.5,4.8.7,3.2,2,4.6c1.4,1.4,3.2,2.6,5.7,3.6l5.8,2.4c4.1,1.7,7.2,3.5,9.3,5.5,2.1,2,3.2,4.6,3.2,8h0Z"/>
    <path class="st1" d="M388.3,276l12-15.4c1.5-1.9,3.1-3.4,5-4.5s4.4-1.7,7.5-1.7h2.9v2.4c-1.7,0-3.3.4-4.9,1.1-1.6.7-3,1.8-4.2,3.3l-10.6,13.5,12,15.3c1.9,2.4,3.6,4.2,5.2,5.5,1.6,1.2,3.4,2,5.3,2.3v1.9c-.5.3-1.2.5-2.1.7s-1.8.3-2.7.3c-2.4,0-4.8-.6-7.2-1.7-2.3-1.1-4.6-3.1-6.8-6l-11.5-15.4v22.1h-8.7v-52c0-2.9-.4-5.2-1.2-7-.8-1.8-2.6-2.6-5.5-2.6h-1.9v-1.9h8.7c1.7,0,3.1.1,4.2.4,1.1.3,2,.9,2.7,1.7s1.1,2,1.4,3.6c.2,1.5.4,3.5.4,5.8v28.4h0Z"/>
    <path class="st1" d="M444.4,300.5l-15.4-37.5c-1-2.4-2.4-4.3-4.2-5.5-1.8-1.2-4-2-6.4-2.2v-1.9h8.2c2.9,0,5.3.7,7.2,2,1.9,1.4,3.3,3.2,4.4,5.7l11,26.6,12.1-33.4h4.8l-18.8,51.5c-1,2.6-2,4.8-3,6.5-1.1,1.7-2.2,3-3.4,4s-2.5,1.6-3.9,2c-1.4.4-3,.5-4.6.5h-2.9v-2.9c1.4,0,2.8-.1,4-.4,1.3-.3,2.5-.8,3.5-1.5,1.1-.7,2-1.8,2.9-3.1.9-1.3,1.7-3,2.5-5l1.9-5.3h0Z"/>
  </g>
  <path class="st0" d="M446.2,217.4c6.2-8.2,19-8.9,19.4-8.5,0,0,3.2,12.9-3,21-6.2,8.2-19.4,8.5-19.4,8.5,0,0-3.2-12.9,3-21Z"/>
</svg>